<mxfile host="drawio-plugin" modified="2023-02-12T15:18:02.324Z" agent="5.0 (Macintosh; Intel Mac OS X 10_15_7) AppleWebKit/537.36 (KHTML, like Gecko) Chrome/104.0.5112.102 Safari/537.36" etag="ehBU1B-hjKzAWQzdWY0K" version="20.5.3" type="embed"><diagram name="Σελίδα-1" id="blRHa1Rh3Wyp8BZbDo7M"><mxGraphModel dx="542" dy="261" grid="1" gridSize="10" guides="1" tooltips="1" connect="1" arrows="1" fold="1" page="1" pageScale="1" pageWidth="827" pageHeight="1169" math="0" shadow="0"><root><mxCell id="0"/><mxCell id="1" parent="0"/><mxCell id="5-6lhZO6HY2LqbYY-5RD-1" value="Doctor" style="swimlane;fontStyle=1;align=center;verticalAlign=top;childLayout=stackLayout;horizontal=1;startSize=26;horizontalStack=0;resizeParent=1;resizeParentMax=0;resizeLast=0;collapsible=1;marginBottom=0;" parent="1" vertex="1"><mxGeometry x="50" y="50" width="480" height="220" as="geometry"/></mxCell><mxCell id="5-6lhZO6HY2LqbYY-5RD-2" value="-firstName: String&#10;-lastName: String&#10;-username: String&#10;-phoneNumber: String&#10;-dateOfBirth: Date&#10;-specialty: String&#10;-isActive: boolean&#10;&#10;&#10;&#10;&#10;" style="text;strokeColor=none;fillColor=none;align=left;verticalAlign=top;spacingLeft=4;spacingRight=4;overflow=hidden;rotatable=0;points=[[0,0.5],[1,0.5]];portConstraint=eastwest;" parent="5-6lhZO6HY2LqbYY-5RD-1" vertex="1"><mxGeometry y="26" width="480" height="104" as="geometry"/></mxCell><mxCell id="5-6lhZO6HY2LqbYY-5RD-3" value="" style="line;strokeWidth=1;fillColor=none;align=left;verticalAlign=middle;spacingTop=-1;spacingLeft=3;spacingRight=3;rotatable=0;labelPosition=right;points=[];portConstraint=eastwest;strokeColor=inherit;" parent="5-6lhZO6HY2LqbYY-5RD-1" vertex="1"><mxGeometry y="130" width="480" height="90" as="geometry"/></mxCell><mxCell id="5-6lhZO6HY2LqbYY-5RD-5" value="Patient" style="swimlane;fontStyle=1;align=center;verticalAlign=top;childLayout=stackLayout;horizontal=1;startSize=26;horizontalStack=0;resizeParent=1;resizeParentMax=0;resizeLast=0;collapsible=1;marginBottom=0;" parent="1" vertex="1"><mxGeometry x="50" y="340" width="330" height="170" as="geometry"/></mxCell><mxCell id="5-6lhZO6HY2LqbYY-5RD-6" value="- firstName: String&#10;- lastName: String&#10;- address : String&#10;- city : String&#10;- dateOfBirth : Date&#10;- diabetesTypes : String &#10;- is Active : boolean&#10;" style="text;strokeColor=none;fillColor=none;align=left;verticalAlign=top;spacingLeft=4;spacingRight=4;overflow=hidden;rotatable=0;points=[[0,0.5],[1,0.5]];portConstraint=eastwest;" parent="5-6lhZO6HY2LqbYY-5RD-5" vertex="1"><mxGeometry y="26" width="330" height="124" as="geometry"/></mxCell><mxCell id="5-6lhZO6HY2LqbYY-5RD-7" value="" style="line;strokeWidth=1;fillColor=none;align=left;verticalAlign=middle;spacingTop=-1;spacingLeft=3;spacingRight=3;rotatable=0;labelPosition=right;points=[];portConstraint=eastwest;strokeColor=inherit;" parent="5-6lhZO6HY2LqbYY-5RD-5" vertex="1"><mxGeometry y="150" width="330" height="20" as="geometry"/></mxCell><mxCell id="5-6lhZO6HY2LqbYY-5RD-12" value="Glucose" style="swimlane;fontStyle=1;align=center;verticalAlign=top;childLayout=stackLayout;horizontal=1;startSize=26;horizontalStack=0;resizeParent=1;resizeParentMax=0;resizeLast=0;collapsible=1;marginBottom=0;" parent="1" vertex="1"><mxGeometry x="40" y="550" width="390" height="128" as="geometry"/></mxCell><mxCell id="5-6lhZO6HY2LqbYY-5RD-13" value="- id : long&#10;- dateTime : Date&#10;- measurement : double&#10;" style="text;strokeColor=none;fillColor=none;align=left;verticalAlign=top;spacingLeft=4;spacingRight=4;overflow=hidden;rotatable=0;points=[[0,0.5],[1,0.5]];portConstraint=eastwest;" parent="5-6lhZO6HY2LqbYY-5RD-12" vertex="1"><mxGeometry y="26" width="390" height="94" as="geometry"/></mxCell><mxCell id="5-6lhZO6HY2LqbYY-5RD-14" value="" style="line;strokeWidth=1;fillColor=none;align=left;verticalAlign=middle;spacingTop=-1;spacingLeft=3;spacingRight=3;rotatable=0;labelPosition=right;points=[];portConstraint=eastwest;strokeColor=inherit;" parent="5-6lhZO6HY2LqbYY-5RD-12" vertex="1"><mxGeometry y="120" width="390" height="8" as="geometry"/></mxCell><mxCell id="5-6lhZO6HY2LqbYY-5RD-16" value="Carb" style="swimlane;fontStyle=1;align=center;verticalAlign=top;childLayout=stackLayout;horizontal=1;startSize=26;horizontalStack=0;resizeParent=1;resizeParentMax=0;resizeLast=0;collapsible=1;marginBottom=0;" parent="1" vertex="1"><mxGeometry x="710" y="50" width="340" height="150" as="geometry"/></mxCell><mxCell id="5-6lhZO6HY2LqbYY-5RD-17" value="- id : long&#10;- gram : double&#10;- date : Date&#10;" style="text;strokeColor=none;fillColor=none;align=left;verticalAlign=top;spacingLeft=4;spacingRight=4;overflow=hidden;rotatable=0;points=[[0,0.5],[1,0.5]];portConstraint=eastwest;" parent="5-6lhZO6HY2LqbYY-5RD-16" vertex="1"><mxGeometry y="26" width="340" height="54" as="geometry"/></mxCell><mxCell id="5-6lhZO6HY2LqbYY-5RD-18" value="" style="line;strokeWidth=1;fillColor=none;align=left;verticalAlign=middle;spacingTop=-1;spacingLeft=3;spacingRight=3;rotatable=0;labelPosition=right;points=[];portConstraint=eastwest;strokeColor=inherit;" parent="5-6lhZO6HY2LqbYY-5RD-16" vertex="1"><mxGeometry y="80" width="340" height="70" as="geometry"/></mxCell><mxCell id="5-6lhZO6HY2LqbYY-5RD-21" value="Consult" style="swimlane;fontStyle=1;align=center;verticalAlign=top;childLayout=stackLayout;horizontal=1;startSize=26;horizontalStack=0;resizeParent=1;resizeParentMax=0;resizeLast=0;collapsible=1;marginBottom=0;" parent="1" vertex="1"><mxGeometry x="640" y="340" width="390" height="170" as="geometry"/></mxCell><mxCell id="5-6lhZO6HY2LqbYY-5RD-22" value="- id: long&#10;- message : String&#10;- date : CurrentDate&#10;- seen : boolean&#10;" style="text;strokeColor=none;fillColor=none;align=left;verticalAlign=top;spacingLeft=4;spacingRight=4;overflow=hidden;rotatable=0;points=[[0,0.5],[1,0.5]];portConstraint=eastwest;" parent="5-6lhZO6HY2LqbYY-5RD-21" vertex="1"><mxGeometry y="26" width="390" height="64" as="geometry"/></mxCell><mxCell id="5-6lhZO6HY2LqbYY-5RD-23" value="" style="line;strokeWidth=1;fillColor=none;align=left;verticalAlign=middle;spacingTop=-1;spacingLeft=3;spacingRight=3;rotatable=0;labelPosition=right;points=[];portConstraint=eastwest;strokeColor=inherit;" parent="5-6lhZO6HY2LqbYY-5RD-21" vertex="1"><mxGeometry y="90" width="390" height="80" as="geometry"/></mxCell></root></mxGraphModel></diagram></mxfile>